<svg xmlns="http://www.w3.org/2000/svg" width="32" height="32" viewBox="0 0 64 64">
  <path d="M18 22
           c0-4.4-3.6-8-8-8S2 17.6 2 22s3.6 8 8 8
           c1.3 0 2.5-.3 3.6-.9l8.9 8.9-8.9 8.9
           C12.5 46.3 11.3 46 10 46c-4.4 0-8 3.6-8 8s3.6 8 8 8 8-3.6 8-8
           c0-1.3-.3-2.5-.9-3.6L26 41.5c1.5 1 3.2 1.5 6 1.5h0
           c2.8 0 4.5-.5 6-1.5l8.9 8.9c-.6 1.1-.9 2.3-.9 3.6
           c0 4.4 3.6 8 8 8s8-3.6 8-8-3.6-8-8-8
           c-1.3 0-2.5.3-3.6.9L41.5 38l8.9-8.9c1.1.6 2.3.9 3.6.9
           c4.4 0 8-3.6 8-8s-3.6-8-8-8-8 3.6-8 8
           c0 1.3.3 2.5.9 3.6L38 34.5c-1.5-1-3.2-1.5-6-1.5s-4.5.5-6 1.5l-8.9-8.9
           C17.7 24.5 18 23.3 18 22Z"
        fill="#ffffff" transform="scale(0.75) translate(10.5 10.5)"/>
</svg>
